<?xml version="1.0" encoding="utf-8" standalone="no"?>
<!DOCTYPE svg PUBLIC "-//W3C//DTD SVG 1.1//EN"
  "http://www.w3.org/Graphics/SVG/1.1/DTD/svg11.dtd">
<svg xmlns:xlink="http://www.w3.org/1999/xlink" width="864pt" height="360pt" viewBox="0 0 864 360" xmlns="http://www.w3.org/2000/svg" version="1.1">
 <metadata>
  <rdf:RDF xmlns:dc="http://purl.org/dc/elements/1.1/" xmlns:cc="http://creativecommons.org/ns#" xmlns:rdf="http://www.w3.org/1999/02/22-rdf-syntax-ns#">
   <cc:Work>
    <dc:type rdf:resource="http://purl.org/dc/dcmitype/StillImage"/>
    <dc:format>image/svg+xml</dc:format>
    <dc:creator>
     <cc:Agent>
      <dc:title>rvvdk benchmark plots</dc:title>
     </cc:Agent>
    </dc:creator>
   </cc:Work>
  </rdf:RDF>
 </metadata>
 <defs>
  <style type="text/css">*{stroke-linejoin: round; stroke-linecap: butt}</style>
 </defs>
 <g id="figure_1">
  <g id="patch_1">
   <path d="M 0 360 
L 864 360 
L 864 0 
L 0 0 
z
" style="fill: #ffffff"/>
  </g>
  <g id="axes_1">
   <g id="patch_2">
    <path d="M 171.07 210.04 
L 840.24 210.04 
L 840.24 104.4 
L 171.07 104.4 
z
" style="fill: #ffffff"/>
   </g>
   <g id="matplotlib.axis_1">
    <g id="xtick_1">
     <g id="line2d_1">
      <defs>
       <path id="mf43836a648" d="M 0 0 
L 0 3.5 
" style="stroke: #000000; stroke-width: 0.8"/>
      </defs>
      <g>
       <use xlink:href="#mf43836a648" x="273.02452" y="210.04" style="stroke: #000000; stroke-width: 0.8"/>
      </g>
     </g>
     <g id="text_1">
      <text style="font-size: 10px; font-family: 'DejaVu Sans'; text-anchor: middle" x="273.02452" y="224.638437" transform="rotate(-0 273.02452 224.638437)">−5</text>
     </g>
    </g>
    <g id="xtick_2">
     <g id="line2d_2">
      <g>
       <use xlink:href="#mf43836a648" x="387.239005" y="210.04" style="stroke: #000000; stroke-width: 0.8"/>
      </g>
     </g>
     <g id="text_2">
      <text style="font-size: 10px; font-family: 'DejaVu Sans'; text-anchor: middle" x="387.239005" y="224.638437" transform="rotate(-0 387.239005 224.638437)">0</text>
     </g>
    </g>
    <g id="xtick_3">
     <g id="line2d_3">
      <g>
       <use xlink:href="#mf43836a648" x="501.453491" y="210.04" style="stroke: #000000; stroke-width: 0.8"/>
      </g>
     </g>
     <g id="text_3">
      <text style="font-size: 10px; font-family: 'DejaVu Sans'; text-anchor: middle" x="501.453491" y="224.638437" transform="rotate(-0 501.453491 224.638437)">5</text>
     </g>
    </g>
    <g id="xtick_4">
     <g id="line2d_4">
      <g>
       <use xlink:href="#mf43836a648" x="615.667976" y="210.04" style="stroke: #000000; stroke-width: 0.8"/>
      </g>
     </g>
     <g id="text_4">
      <text style="font-size: 10px; font-family: 'DejaVu Sans'; text-anchor: middle" x="615.667976" y="224.638437" transform="rotate(-0 615.667976 224.638437)">10</text>
     </g>
    </g>
    <g id="xtick_5">
     <g id="line2d_5">
      <g>
       <use xlink:href="#mf43836a648" x="729.882461" y="210.04" style="stroke: #000000; stroke-width: 0.8"/>
      </g>
     </g>
     <g id="text_5">
      <text style="font-size: 10px; font-family: 'DejaVu Sans'; text-anchor: middle" x="729.882461" y="224.638437" transform="rotate(-0 729.882461 224.638437)">15</text>
     </g>
    </g>
    <g id="text_6">
     <text style="font-size: 10px; font-family: 'DejaVu Sans'; text-anchor: middle" x="505.655" y="238.316562" transform="rotate(-0 505.655 238.316562)">Candidate elapsed-time change (%) · positive = slower</text>
    </g>
   </g>
   <g id="matplotlib.axis_2">
    <g id="ytick_1">
     <g id="line2d_6">
      <defs>
       <path id="me200f1f06a" d="M 0 0 
L -3.5 0 
" style="stroke: #000000; stroke-width: 0.8"/>
      </defs>
      <g>
       <use xlink:href="#me200f1f06a" x="171.07" y="132.096332" style="stroke: #000000; stroke-width: 0.8"/>
      </g>
     </g>
     <g id="text_7">
      <text style="font-size: 10px; font-family: 'DejaVu Sans'" transform="translate(32.224688 131.056488)">FLAT/ZERO inspect · 1 MiB</text>
      <text style="font-size: 10px; font-family: 'DejaVu Sans'" transform="translate(78.630938 142.254301)">Main comparison</text>
     </g>
    </g>
    <g id="ytick_2">
     <g id="line2d_7">
      <g>
       <use xlink:href="#me200f1f06a" x="171.07" y="182.343668" style="stroke: #000000; stroke-width: 0.8"/>
      </g>
     </g>
     <g id="text_8">
      <text style="font-size: 10px; font-family: 'DejaVu Sans'" transform="translate(32.224688 181.303824)">FLAT/ZERO inspect · 1 MiB</text>
      <text style="font-size: 10px; font-family: 'DejaVu Sans'" transform="translate(93.837188 192.501637)">Longer repeat</text>
     </g>
    </g>
   </g>
   <g id="patch_3">
    <path d="M 387.239005 120.539444 
L 526.555302 120.539444 
L 526.555302 143.653219 
L 387.239005 143.653219 
z
" clip-path="url(#p99b5e4e3b1)" style="fill: #c55a41"/>
   </g>
   <g id="patch_4">
    <path d="M 387.239005 170.786781 
L 337.885417 170.786781 
L 337.885417 193.900556 
L 387.239005 193.900556 
z
" clip-path="url(#p99b5e4e3b1)" style="fill: #268477"/>
   </g>
   <g id="line2d_8">
    <path d="M 387.239005 210.04 
L 387.239005 104.4 
" clip-path="url(#p99b5e4e3b1)" style="fill: none; stroke: #526274; stroke-linecap: square"/>
   </g>
   <g id="line2d_9">
    <path d="M 501.453491 210.04 
L 501.453491 104.4 
" clip-path="url(#p99b5e4e3b1)" style="fill: none; stroke-dasharray: 3.7,1.6; stroke-dashoffset: 0; stroke: #85919f"/>
   </g>
   <g id="patch_5">
    <path d="M 171.07 210.04 
L 171.07 104.4 
" style="fill: none; stroke: #000000; stroke-width: 0.8; stroke-linejoin: miter; stroke-linecap: square"/>
   </g>
   <g id="patch_6">
    <path d="M 171.07 210.04 
L 840.24 210.04 
" style="fill: none; stroke: #000000; stroke-width: 0.8; stroke-linejoin: miter; stroke-linecap: square"/>
   </g>
   <g id="PathCollection_1">
    <defs>
     <path id="m1e63b27586" d="M 0 2.872281 
C 0.761738 2.872281 1.49238 2.56964 2.03101 2.03101 
C 2.56964 1.49238 2.872281 0.761738 2.872281 0 
C 2.872281 -0.761738 2.56964 -1.49238 2.03101 -2.03101 
C 1.49238 -2.56964 0.761738 -2.872281 0 -2.872281 
C -0.761738 -2.872281 -1.49238 -2.56964 -2.03101 -2.03101 
C -2.56964 -1.49238 -2.872281 -0.761738 -2.872281 0 
C -2.872281 0.761738 -2.56964 1.49238 -2.03101 2.03101 
C -1.49238 2.56964 -0.761738 2.872281 0 2.872281 
z
" style="stroke: #ffffff; stroke-width: 0.6"/>
    </defs>
    <g clip-path="url(#p99b5e4e3b1)">
     <use xlink:href="#m1e63b27586" x="259.636618" y="127.071598" style="fill: #263445; stroke: #ffffff; stroke-width: 0.6"/>
     <use xlink:href="#m1e63b27586" x="751.673382" y="132.096332" style="fill: #263445; stroke: #ffffff; stroke-width: 0.6"/>
     <use xlink:href="#m1e63b27586" x="463.605427" y="137.121065" style="fill: #263445; stroke: #ffffff; stroke-width: 0.6"/>
    </g>
   </g>
   <g id="text_9">
    <text style="font-size: 10px; font-family: 'DejaVu Sans'; text-anchor: start" x="533.555302" y="118.096332" transform="rotate(-0 533.555302 118.096332)">+6.10%</text>
   </g>
   <g id="PathCollection_2">
    <g clip-path="url(#p99b5e4e3b1)">
     <use xlink:href="#m1e63b27586" x="337.885417" y="177.318935" style="fill: #263445; stroke: #ffffff; stroke-width: 0.6"/>
     <use xlink:href="#m1e63b27586" x="317.144027" y="182.343668" style="fill: #263445; stroke: #ffffff; stroke-width: 0.6"/>
     <use xlink:href="#m1e63b27586" x="368.426024" y="187.368402" style="fill: #263445; stroke: #ffffff; stroke-width: 0.6"/>
    </g>
   </g>
   <g id="text_10">
    <text style="font-size: 10px; font-family: 'DejaVu Sans'; text-anchor: end" x="330.885417" y="168.343668" transform="rotate(-0 330.885417 168.343668)">-2.16%</text>
   </g>
  </g>
  <g id="text_11">
   <text style="font-weight: 700; font-size: 17px; font-family: 'DejaVu Sans'" transform="translate(47.52 21.557344)">R5.8 · Confined CLI sparse parents</text>
   <text style="font-weight: 700; font-size: 17px; font-family: 'DejaVu Sans'" transform="translate(47.52 40.593625)">Main comparison vs targeted repeat</text>
  </g>
  <g id="text_12">
   <text style="font-size: 10px; font-family: 'DejaVu Sans'; text-anchor: start; fill: #465568" x="47.52" y="70.56" transform="rotate(-0 47.52 70.56)">Baseline 6f8f317 → candidate patch 1807f042 · lower time is better</text>
  </g>
  <g id="text_13">
   <text style="font-size: 9px; font-family: 'DejaVu Sans'; fill: #465568" transform="translate(47.52 312.811172)">CPUs 2–6 · powersave · shared host · warm Btrfs fixtures</text>
   <text style="font-size: 9px; font-family: 'DejaVu Sans'; fill: #465568" transform="translate(47.52 324.940781)">Main: 3 adjacent pairs · 30 flat samples/run · 0.3 s warmup · 2 s target</text>
   <text style="font-size: 9px; font-family: 'DejaVu Sans'; fill: #465568" transform="translate(47.52 337.070391)">Repeat: 3 adjacent pairs · 40 flat samples/run · 0.5 s warmup · 4 s target</text>
   <text style="font-size: 9px; font-family: 'DejaVu Sans'; fill: #465568" transform="translate(47.52 349.2)">Paired dots show observed variation, not confidence intervals. The threshold is policy, not statistical significance.</text>
  </g>
  <g id="legend_1">
   <g id="patch_7">
    <path d="M 319.683125 276.97625 
L 335.683125 276.97625 
L 335.683125 271.37625 
L 319.683125 271.37625 
z
" style="fill: #c55a41"/>
   </g>
   <g id="text_14">
    <text style="font-size: 8px; font-family: 'DejaVu Sans'; text-anchor: start" x="342.083125" y="276.97625" transform="rotate(-0 342.083125 276.97625)">Aggregate (ratio of medians)</text>
   </g>
   <g id="line2d_10">
    <defs>
     <path id="ma9c05d4ce5" d="M 0 3 
C 0.795609 3 1.55874 2.683901 2.12132 2.12132 
C 2.683901 1.55874 3 0.795609 3 0 
C 3 -0.795609 2.683901 -1.55874 2.12132 -2.12132 
C 1.55874 -2.683901 0.795609 -3 0 -3 
C -0.795609 -3 -1.55874 -2.683901 -2.12132 -2.12132 
C -2.683901 -1.55874 -3 -0.795609 -3 0 
C -3 0.795609 -2.683901 1.55874 -2.12132 2.12132 
C -1.55874 2.683901 -0.795609 3 0 3 
z
" style="stroke: #263445"/>
    </defs>
    <g>
     <use xlink:href="#ma9c05d4ce5" x="481.966875" y="274.17625" style="fill: #263445; stroke: #263445"/>
    </g>
   </g>
   <g id="text_15">
    <text style="font-size: 8px; font-family: 'DejaVu Sans'; text-anchor: start" x="496.366875" y="276.97625" transform="rotate(-0 496.366875 276.97625)">Matched run pair</text>
   </g>
   <g id="line2d_11">
    <path d="M 580.784375 274.17625 
L 588.784375 274.17625 
L 596.784375 274.17625 
" style="fill: none; stroke-dasharray: 5.55,2.4; stroke-dashoffset: 0; stroke: #85919f; stroke-width: 1.5"/>
   </g>
   <g id="text_16">
    <text style="font-size: 8px; font-family: 'DejaVu Sans'; text-anchor: start" x="603.184375" y="276.97625" transform="rotate(-0 603.184375 276.97625)">+5% investigation threshold</text>
   </g>
  </g>
 </g>
 <defs>
  <clipPath id="p99b5e4e3b1">
   <rect x="171.07" y="104.4" width="669.17" height="105.64"/>
  </clipPath>
 </defs>
</svg>
