<?xml version="1.0" encoding="utf-8" standalone="no"?>
<!DOCTYPE svg PUBLIC "-//W3C//DTD SVG 1.1//EN"
  "http://www.w3.org/Graphics/SVG/1.1/DTD/svg11.dtd">
<svg xmlns:xlink="http://www.w3.org/1999/xlink" width="864pt" height="432pt" viewBox="0 0 864 432" xmlns="http://www.w3.org/2000/svg" version="1.1">
 <metadata>
  <rdf:RDF xmlns:dc="http://purl.org/dc/elements/1.1/" xmlns:cc="http://creativecommons.org/ns#" xmlns:rdf="http://www.w3.org/1999/02/22-rdf-syntax-ns#">
   <cc:Work>
    <dc:type rdf:resource="http://purl.org/dc/dcmitype/StillImage"/>
    <dc:format>image/svg+xml</dc:format>
    <dc:creator>
     <cc:Agent>
      <dc:title>rvvdk benchmark plots</dc:title>
     </cc:Agent>
    </dc:creator>
   </cc:Work>
  </rdf:RDF>
 </metadata>
 <defs>
  <style type="text/css">*{stroke-linejoin: round; stroke-linecap: butt}</style>
 </defs>
 <g id="figure_1">
  <g id="patch_1">
   <path d="M 0 432 
L 864 432 
L 864 0 
L 0 0 
z
" style="fill: #ffffff"/>
  </g>
  <g id="axes_1">
   <g id="patch_2">
    <path d="M 201.85 282.04 
L 840.24 282.04 
L 840.24 104.4 
L 201.85 104.4 
z
" style="fill: #ffffff"/>
   </g>
   <g id="matplotlib.axis_1">
    <g id="xtick_1">
     <g id="line2d_1">
      <defs>
       <path id="mf43836a648" d="M 0 0 
L 0 3.5 
" style="stroke: #000000; stroke-width: 0.8"/>
      </defs>
      <g>
       <use xlink:href="#mf43836a648" x="233.374247" y="282.04" style="stroke: #000000; stroke-width: 0.8"/>
      </g>
     </g>
     <g id="text_1">
      <text style="font-size: 10px; font-family: 'DejaVu Sans'; text-anchor: middle" x="233.374247" y="296.638438" transform="rotate(-0 233.374247 296.638438)">−5</text>
     </g>
    </g>
    <g id="xtick_2">
     <g id="line2d_2">
      <g>
       <use xlink:href="#mf43836a648" x="322.617067" y="282.04" style="stroke: #000000; stroke-width: 0.8"/>
      </g>
     </g>
     <g id="text_2">
      <text style="font-size: 10px; font-family: 'DejaVu Sans'; text-anchor: middle" x="322.617067" y="296.638438" transform="rotate(-0 322.617067 296.638438)">0</text>
     </g>
    </g>
    <g id="xtick_3">
     <g id="line2d_3">
      <g>
       <use xlink:href="#mf43836a648" x="411.859887" y="282.04" style="stroke: #000000; stroke-width: 0.8"/>
      </g>
     </g>
     <g id="text_3">
      <text style="font-size: 10px; font-family: 'DejaVu Sans'; text-anchor: middle" x="411.859887" y="296.638438" transform="rotate(-0 411.859887 296.638438)">5</text>
     </g>
    </g>
    <g id="xtick_4">
     <g id="line2d_4">
      <g>
       <use xlink:href="#mf43836a648" x="501.102707" y="282.04" style="stroke: #000000; stroke-width: 0.8"/>
      </g>
     </g>
     <g id="text_4">
      <text style="font-size: 10px; font-family: 'DejaVu Sans'; text-anchor: middle" x="501.102707" y="296.638438" transform="rotate(-0 501.102707 296.638438)">10</text>
     </g>
    </g>
    <g id="xtick_5">
     <g id="line2d_5">
      <g>
       <use xlink:href="#mf43836a648" x="590.345527" y="282.04" style="stroke: #000000; stroke-width: 0.8"/>
      </g>
     </g>
     <g id="text_5">
      <text style="font-size: 10px; font-family: 'DejaVu Sans'; text-anchor: middle" x="590.345527" y="296.638438" transform="rotate(-0 590.345527 296.638438)">15</text>
     </g>
    </g>
    <g id="xtick_6">
     <g id="line2d_6">
      <g>
       <use xlink:href="#mf43836a648" x="679.588346" y="282.04" style="stroke: #000000; stroke-width: 0.8"/>
      </g>
     </g>
     <g id="text_6">
      <text style="font-size: 10px; font-family: 'DejaVu Sans'; text-anchor: middle" x="679.588346" y="296.638438" transform="rotate(-0 679.588346 296.638438)">20</text>
     </g>
    </g>
    <g id="xtick_7">
     <g id="line2d_7">
      <g>
       <use xlink:href="#mf43836a648" x="768.831166" y="282.04" style="stroke: #000000; stroke-width: 0.8"/>
      </g>
     </g>
     <g id="text_7">
      <text style="font-size: 10px; font-family: 'DejaVu Sans'; text-anchor: middle" x="768.831166" y="296.638438" transform="rotate(-0 768.831166 296.638438)">25</text>
     </g>
    </g>
    <g id="text_8">
     <text style="font-size: 10px; font-family: 'DejaVu Sans'; text-anchor: middle" x="521.045" y="310.316562" transform="rotate(-0 521.045 310.316562)">Candidate elapsed-time change (%) · positive = slower</text>
    </g>
   </g>
   <g id="matplotlib.axis_2">
    <g id="ytick_1">
     <g id="line2d_8">
      <defs>
       <path id="me200f1f06a" d="M 0 0 
L -3.5 0 
" style="stroke: #000000; stroke-width: 0.8"/>
      </defs>
      <g>
       <use xlink:href="#me200f1f06a" x="201.85" y="139.73975" style="stroke: #000000; stroke-width: 0.8"/>
      </g>
     </g>
     <g id="text_9">
      <text style="font-size: 10px; font-family: 'DejaVu Sans'; text-anchor: end" x="194.85" y="143.538968" transform="rotate(-0 194.85 143.538968)">Base metadata load · 1 MiB</text>
     </g>
    </g>
    <g id="ytick_2">
     <g id="line2d_9">
      <g>
       <use xlink:href="#me200f1f06a" x="201.85" y="175.39325" style="stroke: #000000; stroke-width: 0.8"/>
      </g>
     </g>
     <g id="text_10">
      <text style="font-size: 10px; font-family: 'DejaVu Sans'; text-anchor: end" x="194.85" y="179.192469" transform="rotate(-0 194.85 179.192469)">Base contiguous read · 128 KiB</text>
     </g>
    </g>
    <g id="ytick_3">
     <g id="line2d_10">
      <g>
       <use xlink:href="#me200f1f06a" x="201.85" y="211.04675" style="stroke: #000000; stroke-width: 0.8"/>
      </g>
     </g>
     <g id="text_11">
      <text style="font-size: 10px; font-family: 'DejaVu Sans'; text-anchor: end" x="194.85" y="214.845969" transform="rotate(-0 194.85 214.845969)">FLAT/ZERO copy + verify · 1 MiB</text>
     </g>
    </g>
    <g id="ytick_4">
     <g id="line2d_11">
      <g>
       <use xlink:href="#me200f1f06a" x="201.85" y="246.70025" style="stroke: #000000; stroke-width: 0.8"/>
      </g>
     </g>
     <g id="text_12">
      <text style="font-size: 10px; font-family: 'DejaVu Sans'; text-anchor: end" x="194.85" y="250.499469" transform="rotate(-0 194.85 250.499469)">RAW verify · 16 MiB</text>
     </g>
    </g>
   </g>
   <g id="patch_3">
    <path d="M 322.617067 131.539444 
L 306.87977 131.539444 
L 306.87977 147.940055 
L 322.617067 147.940055 
z
" clip-path="url(#p0a479f3028)" style="fill: #268477"/>
   </g>
   <g id="patch_4">
    <path d="M 322.617067 167.192945 
L 343.958235 167.192945 
L 343.958235 183.593555 
L 322.617067 183.593555 
z
" clip-path="url(#p0a479f3028)" style="fill: #c55a41"/>
   </g>
   <g id="patch_5">
    <path d="M 322.617067 202.846445 
L 337.922501 202.846445 
L 337.922501 219.247055 
L 322.617067 219.247055 
z
" clip-path="url(#p0a479f3028)" style="fill: #c55a41"/>
   </g>
   <g id="patch_6">
    <path d="M 322.617067 238.499945 
L 344.020317 238.499945 
L 344.020317 254.900556 
L 322.617067 254.900556 
z
" clip-path="url(#p0a479f3028)" style="fill: #c55a41"/>
   </g>
   <g id="line2d_12">
    <path d="M 322.617067 282.04 
L 322.617067 104.4 
" clip-path="url(#p0a479f3028)" style="fill: none; stroke: #526274; stroke-linecap: square"/>
   </g>
   <g id="line2d_13">
    <path d="M 411.859887 282.04 
L 411.859887 104.4 
" clip-path="url(#p0a479f3028)" style="fill: none; stroke-dasharray: 3.7,1.6; stroke-dashoffset: 0; stroke: #85919f"/>
   </g>
   <g id="patch_7">
    <path d="M 201.85 282.04 
L 201.85 104.4 
" style="fill: none; stroke: #000000; stroke-width: 0.8; stroke-linejoin: miter; stroke-linecap: square"/>
   </g>
   <g id="patch_8">
    <path d="M 201.85 282.04 
L 840.24 282.04 
" style="fill: none; stroke: #000000; stroke-width: 0.8; stroke-linejoin: miter; stroke-linecap: square"/>
   </g>
   <g id="PathCollection_1">
    <defs>
     <path id="m1e63b27586" d="M 0 2.872281 
C 0.761738 2.872281 1.49238 2.56964 2.03101 2.03101 
C 2.56964 1.49238 2.872281 0.761738 2.872281 0 
C 2.872281 -0.761738 2.56964 -1.49238 2.03101 -2.03101 
C 1.49238 -2.56964 0.761738 -2.872281 0 -2.872281 
C -0.761738 -2.872281 -1.49238 -2.56964 -2.03101 -2.03101 
C -2.56964 -1.49238 -2.872281 -0.761738 -2.872281 0 
C -2.872281 0.761738 -2.56964 1.49238 -2.03101 2.03101 
C -1.49238 2.56964 -0.761738 2.872281 0 2.872281 
z
" style="stroke: #ffffff; stroke-width: 0.6"/>
    </defs>
    <g clip-path="url(#p0a479f3028)">
     <use xlink:href="#m1e63b27586" x="329.896501" y="136.174399" style="fill: #263445; stroke: #ffffff; stroke-width: 0.6"/>
     <use xlink:href="#m1e63b27586" x="426.262519" y="139.73975" style="fill: #263445; stroke: #ffffff; stroke-width: 0.6"/>
     <use xlink:href="#m1e63b27586" x="302.414941" y="143.3051" style="fill: #263445; stroke: #ffffff; stroke-width: 0.6"/>
    </g>
   </g>
   <g id="text_13">
    <text style="font-size: 10px; font-family: 'DejaVu Sans'; text-anchor: end" x="299.87977" y="125.73975" transform="rotate(-0 299.87977 125.73975)">-0.88%</text>
   </g>
   <g id="PathCollection_2">
    <g clip-path="url(#p0a479f3028)">
     <use xlink:href="#m1e63b27586" x="312.541333" y="171.8279" style="fill: #263445; stroke: #ffffff; stroke-width: 0.6"/>
     <use xlink:href="#m1e63b27586" x="324.840005" y="175.39325" style="fill: #263445; stroke: #ffffff; stroke-width: 0.6"/>
     <use xlink:href="#m1e63b27586" x="755.747206" y="178.9586" style="fill: #263445; stroke: #ffffff; stroke-width: 0.6"/>
    </g>
   </g>
   <g id="text_14">
    <text style="font-size: 10px; font-family: 'DejaVu Sans'; text-anchor: start" x="350.958235" y="161.39325" transform="rotate(-0 350.958235 161.39325)">+1.20%</text>
   </g>
   <g id="PathCollection_3">
    <g clip-path="url(#p0a479f3028)">
     <use xlink:href="#m1e63b27586" x="337.513876" y="207.4814" style="fill: #263445; stroke: #ffffff; stroke-width: 0.6"/>
     <use xlink:href="#m1e63b27586" x="331.725748" y="211.04675" style="fill: #263445; stroke: #ffffff; stroke-width: 0.6"/>
     <use xlink:href="#m1e63b27586" x="341.797649" y="214.6121" style="fill: #263445; stroke: #ffffff; stroke-width: 0.6"/>
    </g>
   </g>
   <g id="text_15">
    <text style="font-size: 10px; font-family: 'DejaVu Sans'; text-anchor: start" x="344.922501" y="197.04675" transform="rotate(-0 344.922501 197.04675)">+0.86%</text>
   </g>
   <g id="PathCollection_4">
    <g clip-path="url(#p0a479f3028)">
     <use xlink:href="#m1e63b27586" x="567.309502" y="243.1349" style="fill: #263445; stroke: #ffffff; stroke-width: 0.6"/>
     <use xlink:href="#m1e63b27586" x="344.020317" y="246.70025" style="fill: #263445; stroke: #ffffff; stroke-width: 0.6"/>
     <use xlink:href="#m1e63b27586" x="286.342794" y="250.265601" style="fill: #263445; stroke: #ffffff; stroke-width: 0.6"/>
    </g>
   </g>
   <g id="text_16">
    <text style="font-size: 10px; font-family: 'DejaVu Sans'; text-anchor: start" x="351.020317" y="232.70025" transform="rotate(-0 351.020317 232.70025)">+1.20%</text>
   </g>
  </g>
  <g id="text_17">
   <text style="font-weight: 700; font-size: 17px; font-family: 'DejaVu Sans'" transform="translate(47.52 21.557344)">R5.7 · Logical sparse parent reads</text>
   <text style="font-weight: 700; font-size: 17px; font-family: 'DejaVu Sans'" transform="translate(47.52 40.726437)">Elapsed-time change · every paired run</text>
  </g>
  <g id="text_18">
   <text style="font-size: 10px; font-family: 'DejaVu Sans'; text-anchor: start; fill: #465568" x="47.52" y="70.56" transform="rotate(-0 47.52 70.56)">Baseline 5436dbc → candidate patch 50497111 · lower time is better</text>
  </g>
  <g id="text_19">
   <text style="font-size: 9px; font-family: 'DejaVu Sans'; fill: #465568" transform="translate(47.52 396.940781)">CPUs 2–6 · powersave · shared host · memory fixtures / warm Btrfs CLI</text>
   <text style="font-size: 9px; font-family: 'DejaVu Sans'; fill: #465568" transform="translate(47.52 409.070391)">3 adjacent pairs · 30 flat samples/run · 0.3 s warmup · 2 s target</text>
   <text style="font-size: 9px; font-family: 'DejaVu Sans'; fill: #465568" transform="translate(47.52 421.2)">Paired dots show observed variation, not confidence intervals. The threshold is policy, not statistical significance.</text>
  </g>
  <g id="legend_1">
   <g id="patch_9">
    <path d="M 319.683125 348.97625 
L 335.683125 348.97625 
L 335.683125 343.37625 
L 319.683125 343.37625 
z
" style="fill: #c55a41"/>
   </g>
   <g id="text_20">
    <text style="font-size: 8px; font-family: 'DejaVu Sans'; text-anchor: start" x="342.083125" y="348.97625" transform="rotate(-0 342.083125 348.97625)">Aggregate (ratio of medians)</text>
   </g>
   <g id="line2d_14">
    <defs>
     <path id="ma9c05d4ce5" d="M 0 3 
C 0.795609 3 1.55874 2.683901 2.12132 2.12132 
C 2.683901 1.55874 3 0.795609 3 0 
C 3 -0.795609 2.683901 -1.55874 2.12132 -2.12132 
C 1.55874 -2.683901 0.795609 -3 0 -3 
C -0.795609 -3 -1.55874 -2.683901 -2.12132 -2.12132 
C -2.683901 -1.55874 -3 -0.795609 -3 0 
C -3 0.795609 -2.683901 1.55874 -2.12132 2.12132 
C -1.55874 2.683901 -0.795609 3 0 3 
z
" style="stroke: #263445"/>
    </defs>
    <g>
     <use xlink:href="#ma9c05d4ce5" x="481.966875" y="346.17625" style="fill: #263445; stroke: #263445"/>
    </g>
   </g>
   <g id="text_21">
    <text style="font-size: 8px; font-family: 'DejaVu Sans'; text-anchor: start" x="496.366875" y="348.97625" transform="rotate(-0 496.366875 348.97625)">Matched run pair</text>
   </g>
   <g id="line2d_15">
    <path d="M 580.784375 346.17625 
L 588.784375 346.17625 
L 596.784375 346.17625 
" style="fill: none; stroke-dasharray: 5.55,2.4; stroke-dashoffset: 0; stroke: #85919f; stroke-width: 1.5"/>
   </g>
   <g id="text_22">
    <text style="font-size: 8px; font-family: 'DejaVu Sans'; text-anchor: start" x="603.184375" y="348.97625" transform="rotate(-0 603.184375 348.97625)">+5% investigation threshold</text>
   </g>
  </g>
 </g>
 <defs>
  <clipPath id="p0a479f3028">
   <rect x="201.85" y="104.4" width="638.39" height="177.64"/>
  </clipPath>
 </defs>
</svg>
